<mxfile host="app.diagrams.net" modified="2021-10-25T15:07:22.207Z" agent="5.0 (Windows NT 10.0; Win64; x64) AppleWebKit/537.36 (KHTML, like Gecko) Chrome/94.0.4606.81 Safari/537.36" etag="-nsApOxcepTYQAqv8Te6" version="15.5.9" type="github" pages="2">
  <diagram id="NV33rSX4w5AwB5hAbUp2" name="Page-1">
    <mxGraphModel dx="1691" dy="855" grid="1" gridSize="10" guides="1" tooltips="1" connect="1" arrows="1" fold="1" page="1" pageScale="1" pageWidth="827" pageHeight="1169" math="0" shadow="0">
      <root>
        <mxCell id="0" />
        <mxCell id="1" parent="0" />
        <mxCell id="4YwDPGDmtvdBvPmNs5R9-18" value="Camioneros" style="rounded=0;whiteSpace=wrap;html=1;fontSize=18;strokeWidth=2;" vertex="1" parent="1">
          <mxGeometry x="334" y="440" width="100" height="45" as="geometry" />
        </mxCell>
        <mxCell id="4YwDPGDmtvdBvPmNs5R9-27" value="" style="edgeStyle=orthogonalEdgeStyle;rounded=0;orthogonalLoop=1;jettySize=auto;html=1;fontSize=16;endArrow=none;endFill=0;" edge="1" parent="1" source="4YwDPGDmtvdBvPmNs5R9-19" target="4YwDPGDmtvdBvPmNs5R9-18">
          <mxGeometry relative="1" as="geometry" />
        </mxCell>
        <mxCell id="4YwDPGDmtvdBvPmNs5R9-19" value="DNI" style="ellipse;whiteSpace=wrap;html=1;fontSize=16;strokeWidth=2;" vertex="1" parent="1">
          <mxGeometry x="420" y="760" width="80" height="50" as="geometry" />
        </mxCell>
        <mxCell id="4YwDPGDmtvdBvPmNs5R9-28" value="" style="edgeStyle=orthogonalEdgeStyle;rounded=0;orthogonalLoop=1;jettySize=auto;html=1;fontSize=16;endArrow=none;endFill=0;entryX=0.09;entryY=1.022;entryDx=0;entryDy=0;entryPerimeter=0;exitX=0.5;exitY=0;exitDx=0;exitDy=0;" edge="1" parent="1" source="4YwDPGDmtvdBvPmNs5R9-20" target="4YwDPGDmtvdBvPmNs5R9-18">
          <mxGeometry relative="1" as="geometry">
            <mxPoint x="230" y="710" as="sourcePoint" />
            <mxPoint x="260" y="603" as="targetPoint" />
            <Array as="points">
              <mxPoint x="210" y="598" />
              <mxPoint x="290" y="598" />
              <mxPoint x="290" y="486" />
            </Array>
          </mxGeometry>
        </mxCell>
        <mxCell id="4YwDPGDmtvdBvPmNs5R9-20" value="Nombre" style="ellipse;whiteSpace=wrap;html=1;fontSize=16;strokeWidth=2;" vertex="1" parent="1">
          <mxGeometry x="180" y="730" width="80" height="50" as="geometry" />
        </mxCell>
        <mxCell id="4YwDPGDmtvdBvPmNs5R9-26" value="" style="edgeStyle=orthogonalEdgeStyle;rounded=0;orthogonalLoop=1;jettySize=auto;html=1;fontSize=16;endArrow=none;endFill=0;entryX=0.25;entryY=1;entryDx=0;entryDy=0;" edge="1" parent="1" source="4YwDPGDmtvdBvPmNs5R9-21" target="4YwDPGDmtvdBvPmNs5R9-18">
          <mxGeometry relative="1" as="geometry">
            <Array as="points">
              <mxPoint x="321" y="593" />
              <mxPoint x="359" y="593" />
            </Array>
          </mxGeometry>
        </mxCell>
        <mxCell id="4YwDPGDmtvdBvPmNs5R9-21" value="Teléfono" style="ellipse;whiteSpace=wrap;html=1;fontSize=16;strokeWidth=2;" vertex="1" parent="1">
          <mxGeometry x="276" y="700" width="90" height="50" as="geometry" />
        </mxCell>
        <mxCell id="4YwDPGDmtvdBvPmNs5R9-25" value="" style="edgeStyle=orthogonalEdgeStyle;rounded=0;orthogonalLoop=1;jettySize=auto;html=1;fontSize=16;endArrow=none;endFill=0;entryX=0.75;entryY=1;entryDx=0;entryDy=0;" edge="1" parent="1" source="4YwDPGDmtvdBvPmNs5R9-22" target="4YwDPGDmtvdBvPmNs5R9-18">
          <mxGeometry relative="1" as="geometry" />
        </mxCell>
        <mxCell id="4YwDPGDmtvdBvPmNs5R9-22" value="Dirección&lt;span style=&quot;color: rgba(0 , 0 , 0 , 0) ; font-family: monospace ; font-size: 0px&quot;&gt;%3CmxGraphModel%3E%3Croot%3E%3CmxCell%20id%3D%220%22%2F%3E%3CmxCell%20id%3D%221%22%20parent%3D%220%22%2F%3E%3CmxCell%20id%3D%222%22%20value%3D%22Nombre%22%20style%3D%22ellipse%3BwhiteSpace%3Dwrap%3Bhtml%3D1%3BfontSize%3D16%3BstrokeWidth%3D2%3B%22%20vertex%3D%221%22%20parent%3D%221%22%3E%3CmxGeometry%20x%3D%22360%22%20y%3D%22350%22%20width%3D%2280%22%20height%3D%2250%22%20as%3D%22geometry%22%2F%3E%3C%2FmxCell%3E%3C%2Froot%3E%3C%2FmxGraphModel%3E&lt;/span&gt;" style="ellipse;whiteSpace=wrap;html=1;fontSize=16;strokeWidth=2;" vertex="1" parent="1">
          <mxGeometry x="370" y="660" width="80" height="50" as="geometry" />
        </mxCell>
        <mxCell id="4YwDPGDmtvdBvPmNs5R9-29" value="" style="edgeStyle=orthogonalEdgeStyle;rounded=0;orthogonalLoop=1;jettySize=auto;html=1;fontSize=16;endArrow=none;endFill=0;exitX=0.5;exitY=0;exitDx=0;exitDy=0;entryX=1;entryY=0.5;entryDx=0;entryDy=0;" edge="1" parent="1" source="4YwDPGDmtvdBvPmNs5R9-23" target="4YwDPGDmtvdBvPmNs5R9-18">
          <mxGeometry relative="1" as="geometry">
            <mxPoint x="454" y="480" as="targetPoint" />
          </mxGeometry>
        </mxCell>
        <mxCell id="4YwDPGDmtvdBvPmNs5R9-23" value="Salario" style="ellipse;whiteSpace=wrap;html=1;fontSize=16;strokeWidth=2;" vertex="1" parent="1">
          <mxGeometry x="480" y="630" width="80" height="50" as="geometry" />
        </mxCell>
        <mxCell id="4YwDPGDmtvdBvPmNs5R9-31" value="" style="edgeStyle=orthogonalEdgeStyle;rounded=0;orthogonalLoop=1;jettySize=auto;html=1;fontSize=16;endArrow=none;endFill=0;exitX=0.5;exitY=0;exitDx=0;exitDy=0;entryX=1;entryY=1;entryDx=0;entryDy=0;" edge="1" parent="1" source="4YwDPGDmtvdBvPmNs5R9-24" target="4YwDPGDmtvdBvPmNs5R9-18">
          <mxGeometry relative="1" as="geometry" />
        </mxCell>
        <mxCell id="4YwDPGDmtvdBvPmNs5R9-24" value="Población" style="ellipse;whiteSpace=wrap;html=1;fontSize=16;strokeWidth=2;" vertex="1" parent="1">
          <mxGeometry x="584" y="560" width="80" height="50" as="geometry" />
        </mxCell>
        <mxCell id="4YwDPGDmtvdBvPmNs5R9-32" value="Paquetes" style="rounded=0;whiteSpace=wrap;html=1;fontSize=18;strokeWidth=2;" vertex="1" parent="1">
          <mxGeometry x="334" y="217.5" width="100" height="45" as="geometry" />
        </mxCell>
        <mxCell id="4YwDPGDmtvdBvPmNs5R9-35" value="Provincia" style="rounded=0;whiteSpace=wrap;html=1;fontSize=18;strokeWidth=2;" vertex="1" parent="1">
          <mxGeometry x="40" y="217.5" width="100" height="45" as="geometry" />
        </mxCell>
        <mxCell id="4YwDPGDmtvdBvPmNs5R9-48" value="" style="edgeStyle=orthogonalEdgeStyle;rounded=0;orthogonalLoop=1;jettySize=auto;html=1;fontSize=16;endArrow=none;endFill=0;" edge="1" parent="1" source="4YwDPGDmtvdBvPmNs5R9-37" target="4YwDPGDmtvdBvPmNs5R9-35">
          <mxGeometry relative="1" as="geometry" />
        </mxCell>
        <mxCell id="4YwDPGDmtvdBvPmNs5R9-49" value="" style="edgeStyle=orthogonalEdgeStyle;rounded=0;orthogonalLoop=1;jettySize=auto;html=1;fontSize=16;endArrow=none;endFill=0;" edge="1" parent="1" source="4YwDPGDmtvdBvPmNs5R9-37" target="4YwDPGDmtvdBvPmNs5R9-32">
          <mxGeometry relative="1" as="geometry" />
        </mxCell>
        <mxCell id="4YwDPGDmtvdBvPmNs5R9-37" value="Tiene" style="rhombus;whiteSpace=wrap;html=1;fontSize=16;strokeWidth=2;" vertex="1" parent="1">
          <mxGeometry x="202" y="207.5" width="72" height="65" as="geometry" />
        </mxCell>
        <mxCell id="4YwDPGDmtvdBvPmNs5R9-46" value="" style="edgeStyle=orthogonalEdgeStyle;rounded=0;orthogonalLoop=1;jettySize=auto;html=1;fontSize=16;endArrow=none;endFill=0;" edge="1" parent="1" source="4YwDPGDmtvdBvPmNs5R9-38" target="4YwDPGDmtvdBvPmNs5R9-32">
          <mxGeometry relative="1" as="geometry" />
        </mxCell>
        <mxCell id="4YwDPGDmtvdBvPmNs5R9-47" value="" style="edgeStyle=orthogonalEdgeStyle;rounded=0;orthogonalLoop=1;jettySize=auto;html=1;fontSize=16;endArrow=none;endFill=0;" edge="1" parent="1" source="4YwDPGDmtvdBvPmNs5R9-38" target="4YwDPGDmtvdBvPmNs5R9-18">
          <mxGeometry relative="1" as="geometry" />
        </mxCell>
        <mxCell id="4YwDPGDmtvdBvPmNs5R9-38" value="LLeva" style="rhombus;whiteSpace=wrap;html=1;fontSize=16;strokeWidth=2;" vertex="1" parent="1">
          <mxGeometry x="352" y="320" width="64" height="60" as="geometry" />
        </mxCell>
        <mxCell id="4YwDPGDmtvdBvPmNs5R9-44" value="" style="edgeStyle=orthogonalEdgeStyle;rounded=0;orthogonalLoop=1;jettySize=auto;html=1;fontSize=16;endArrow=none;endFill=0;entryX=1;entryY=0.5;entryDx=0;entryDy=0;" edge="1" parent="1" source="4YwDPGDmtvdBvPmNs5R9-39" target="4YwDPGDmtvdBvPmNs5R9-32">
          <mxGeometry relative="1" as="geometry">
            <mxPoint x="400" y="210" as="targetPoint" />
            <Array as="points">
              <mxPoint x="500" y="130" />
              <mxPoint x="500" y="240" />
            </Array>
          </mxGeometry>
        </mxCell>
        <mxCell id="4YwDPGDmtvdBvPmNs5R9-39" value="Código del paquete" style="ellipse;whiteSpace=wrap;html=1;fontSize=16;strokeWidth=2;" vertex="1" parent="1">
          <mxGeometry x="540" y="100" width="100" height="60" as="geometry" />
        </mxCell>
        <mxCell id="4YwDPGDmtvdBvPmNs5R9-45" value="" style="edgeStyle=orthogonalEdgeStyle;rounded=0;orthogonalLoop=1;jettySize=auto;html=1;fontSize=16;endArrow=none;endFill=0;exitX=0.35;exitY=1.05;exitDx=0;exitDy=0;exitPerimeter=0;" edge="1" parent="1" source="4YwDPGDmtvdBvPmNs5R9-40" target="4YwDPGDmtvdBvPmNs5R9-32">
          <mxGeometry relative="1" as="geometry">
            <Array as="points">
              <mxPoint x="484" y="83" />
              <mxPoint x="484" y="154" />
              <mxPoint x="420" y="154" />
            </Array>
          </mxGeometry>
        </mxCell>
        <mxCell id="4YwDPGDmtvdBvPmNs5R9-40" value="Destinatario" style="ellipse;whiteSpace=wrap;html=1;fontSize=16;strokeWidth=2;" vertex="1" parent="1">
          <mxGeometry x="450" y="20" width="100" height="60" as="geometry" />
        </mxCell>
        <mxCell id="4YwDPGDmtvdBvPmNs5R9-42" value="" style="edgeStyle=orthogonalEdgeStyle;rounded=0;orthogonalLoop=1;jettySize=auto;html=1;fontSize=16;endArrow=none;endFill=0;exitX=0.5;exitY=1;exitDx=0;exitDy=0;" edge="1" parent="1" source="4YwDPGDmtvdBvPmNs5R9-41" target="4YwDPGDmtvdBvPmNs5R9-32">
          <mxGeometry relative="1" as="geometry" />
        </mxCell>
        <mxCell id="4YwDPGDmtvdBvPmNs5R9-41" value="Dirección del destinatario" style="ellipse;whiteSpace=wrap;html=1;fontSize=16;strokeWidth=2;" vertex="1" parent="1">
          <mxGeometry x="274" y="50" width="120" height="70" as="geometry" />
        </mxCell>
        <mxCell id="4YwDPGDmtvdBvPmNs5R9-50" value="1:M" style="text;html=1;strokeColor=none;fillColor=none;align=center;verticalAlign=middle;whiteSpace=wrap;rounded=0;fontSize=19;labelBackgroundColor=default;labelBorderColor=none;fontStyle=7" vertex="1" parent="1">
          <mxGeometry x="208" y="177.5" width="60" height="30" as="geometry" />
        </mxCell>
        <mxCell id="4YwDPGDmtvdBvPmNs5R9-51" value="1:M" style="text;html=1;strokeColor=none;fillColor=none;align=center;verticalAlign=middle;whiteSpace=wrap;rounded=0;labelBackgroundColor=none;labelBorderColor=none;fontSize=14;" vertex="1" parent="1">
          <mxGeometry x="140" y="217.5" width="58" height="22.5" as="geometry" />
        </mxCell>
        <mxCell id="4YwDPGDmtvdBvPmNs5R9-54" value="M:N" style="text;html=1;strokeColor=none;fillColor=none;align=center;verticalAlign=middle;whiteSpace=wrap;rounded=0;labelBackgroundColor=none;labelBorderColor=none;fontSize=14;" vertex="1" parent="1">
          <mxGeometry x="276" y="217.5" width="58" height="22.5" as="geometry" />
        </mxCell>
        <mxCell id="4YwDPGDmtvdBvPmNs5R9-62" value="" style="edgeStyle=orthogonalEdgeStyle;rounded=0;orthogonalLoop=1;jettySize=auto;html=1;fontSize=14;endArrow=none;endFill=0;" edge="1" parent="1" source="4YwDPGDmtvdBvPmNs5R9-55" target="4YwDPGDmtvdBvPmNs5R9-61">
          <mxGeometry relative="1" as="geometry" />
        </mxCell>
        <mxCell id="4YwDPGDmtvdBvPmNs5R9-73" value="" style="edgeStyle=orthogonalEdgeStyle;rounded=0;orthogonalLoop=1;jettySize=auto;html=1;fontSize=14;endArrow=none;endFill=0;exitX=0;exitY=0.75;exitDx=0;exitDy=0;" edge="1" parent="1" source="4YwDPGDmtvdBvPmNs5R9-55" target="4YwDPGDmtvdBvPmNs5R9-59">
          <mxGeometry relative="1" as="geometry" />
        </mxCell>
        <mxCell id="4YwDPGDmtvdBvPmNs5R9-55" value="Camiones" style="rounded=0;whiteSpace=wrap;html=1;fontSize=18;strokeWidth=2;" vertex="1" parent="1">
          <mxGeometry x="40" y="440" width="100" height="45" as="geometry" />
        </mxCell>
        <mxCell id="4YwDPGDmtvdBvPmNs5R9-68" value="" style="edgeStyle=orthogonalEdgeStyle;rounded=0;orthogonalLoop=1;jettySize=auto;html=1;fontSize=14;endArrow=none;endFill=0;" edge="1" parent="1" source="4YwDPGDmtvdBvPmNs5R9-57" target="4YwDPGDmtvdBvPmNs5R9-55">
          <mxGeometry relative="1" as="geometry" />
        </mxCell>
        <mxCell id="4YwDPGDmtvdBvPmNs5R9-57" value="Matrícula" style="ellipse;whiteSpace=wrap;html=1;fontSize=16;strokeWidth=2;" vertex="1" parent="1">
          <mxGeometry x="-10" y="360" width="80" height="50" as="geometry" />
        </mxCell>
        <mxCell id="4YwDPGDmtvdBvPmNs5R9-69" value="" style="edgeStyle=orthogonalEdgeStyle;rounded=0;orthogonalLoop=1;jettySize=auto;html=1;fontSize=14;endArrow=none;endFill=0;" edge="1" parent="1" source="4YwDPGDmtvdBvPmNs5R9-58" target="4YwDPGDmtvdBvPmNs5R9-55">
          <mxGeometry relative="1" as="geometry" />
        </mxCell>
        <mxCell id="4YwDPGDmtvdBvPmNs5R9-58" value="Modelo" style="ellipse;whiteSpace=wrap;html=1;fontSize=16;strokeWidth=2;" vertex="1" parent="1">
          <mxGeometry x="-160" y="390" width="80" height="50" as="geometry" />
        </mxCell>
        <mxCell id="4YwDPGDmtvdBvPmNs5R9-59" value="Típo" style="ellipse;whiteSpace=wrap;html=1;fontSize=16;strokeWidth=2;" vertex="1" parent="1">
          <mxGeometry x="-110" y="520" width="80" height="50" as="geometry" />
        </mxCell>
        <mxCell id="4YwDPGDmtvdBvPmNs5R9-74" value="" style="edgeStyle=orthogonalEdgeStyle;rounded=0;orthogonalLoop=1;jettySize=auto;html=1;fontSize=14;endArrow=none;endFill=0;" edge="1" parent="1" source="4YwDPGDmtvdBvPmNs5R9-60" target="4YwDPGDmtvdBvPmNs5R9-55">
          <mxGeometry relative="1" as="geometry" />
        </mxCell>
        <mxCell id="4YwDPGDmtvdBvPmNs5R9-60" value="Potencia" style="ellipse;whiteSpace=wrap;html=1;fontSize=16;strokeWidth=2;" vertex="1" parent="1">
          <mxGeometry x="-40" y="550" width="80" height="50" as="geometry" />
        </mxCell>
        <mxCell id="4YwDPGDmtvdBvPmNs5R9-63" value="" style="edgeStyle=orthogonalEdgeStyle;rounded=0;orthogonalLoop=1;jettySize=auto;html=1;fontSize=14;endArrow=none;endFill=0;" edge="1" parent="1" source="4YwDPGDmtvdBvPmNs5R9-61" target="4YwDPGDmtvdBvPmNs5R9-18">
          <mxGeometry relative="1" as="geometry" />
        </mxCell>
        <mxCell id="4YwDPGDmtvdBvPmNs5R9-61" value="Usa" style="rhombus;whiteSpace=wrap;html=1;fontSize=16;strokeWidth=2;" vertex="1" parent="1">
          <mxGeometry x="202" y="430" width="72" height="65" as="geometry" />
        </mxCell>
        <mxCell id="4YwDPGDmtvdBvPmNs5R9-64" value="1:M" style="text;html=1;strokeColor=none;fillColor=none;align=center;verticalAlign=middle;whiteSpace=wrap;rounded=0;fontSize=19;labelBackgroundColor=default;labelBorderColor=none;fontStyle=7" vertex="1" parent="1">
          <mxGeometry x="208" y="397.5" width="60" height="30" as="geometry" />
        </mxCell>
        <mxCell id="4YwDPGDmtvdBvPmNs5R9-65" value="1:M" style="text;html=1;strokeColor=none;fillColor=none;align=center;verticalAlign=middle;whiteSpace=wrap;rounded=0;labelBackgroundColor=none;labelBorderColor=none;fontSize=14;" vertex="1" parent="1">
          <mxGeometry x="150" y="440" width="58" height="22.5" as="geometry" />
        </mxCell>
        <mxCell id="4YwDPGDmtvdBvPmNs5R9-66" value="1:1" style="text;html=1;strokeColor=none;fillColor=none;align=center;verticalAlign=middle;whiteSpace=wrap;rounded=0;labelBackgroundColor=none;labelBorderColor=none;fontSize=14;" vertex="1" parent="1">
          <mxGeometry x="276" y="440" width="58" height="22.5" as="geometry" />
        </mxCell>
        <mxCell id="4YwDPGDmtvdBvPmNs5R9-78" value="" style="edgeStyle=orthogonalEdgeStyle;rounded=0;orthogonalLoop=1;jettySize=auto;html=1;fontSize=14;endArrow=none;endFill=0;" edge="1" parent="1" source="4YwDPGDmtvdBvPmNs5R9-76" target="4YwDPGDmtvdBvPmNs5R9-35">
          <mxGeometry relative="1" as="geometry" />
        </mxCell>
        <mxCell id="4YwDPGDmtvdBvPmNs5R9-76" value="Código de provincia" style="ellipse;whiteSpace=wrap;html=1;fontSize=16;strokeWidth=2;" vertex="1" parent="1">
          <mxGeometry x="-90" y="190" width="90" height="60" as="geometry" />
        </mxCell>
        <mxCell id="4YwDPGDmtvdBvPmNs5R9-79" value="" style="edgeStyle=orthogonalEdgeStyle;rounded=0;orthogonalLoop=1;jettySize=auto;html=1;fontSize=14;endArrow=none;endFill=0;" edge="1" parent="1" source="4YwDPGDmtvdBvPmNs5R9-77" target="4YwDPGDmtvdBvPmNs5R9-35">
          <mxGeometry relative="1" as="geometry" />
        </mxCell>
        <mxCell id="4YwDPGDmtvdBvPmNs5R9-77" value="Nombre" style="ellipse;whiteSpace=wrap;html=1;fontSize=16;strokeWidth=2;" vertex="1" parent="1">
          <mxGeometry x="-90" y="272.5" width="90" height="60" as="geometry" />
        </mxCell>
        <mxCell id="4YwDPGDmtvdBvPmNs5R9-83" value="1:M" style="text;html=1;strokeColor=none;fillColor=none;align=center;verticalAlign=middle;whiteSpace=wrap;rounded=0;fontSize=19;labelBackgroundColor=default;labelBorderColor=none;fontStyle=7" vertex="1" parent="1">
          <mxGeometry x="420" y="332.5" width="60" height="30" as="geometry" />
        </mxCell>
        <mxCell id="4YwDPGDmtvdBvPmNs5R9-84" value="1:1" style="text;html=1;strokeColor=none;fillColor=none;align=center;verticalAlign=middle;whiteSpace=wrap;rounded=0;labelBackgroundColor=none;labelBorderColor=none;fontSize=14;" vertex="1" parent="1">
          <mxGeometry x="394" y="280" width="58" height="22.5" as="geometry" />
        </mxCell>
        <mxCell id="4YwDPGDmtvdBvPmNs5R9-85" value="1:M" style="text;html=1;strokeColor=none;fillColor=none;align=center;verticalAlign=middle;whiteSpace=wrap;rounded=0;labelBackgroundColor=none;labelBorderColor=none;fontSize=14;" vertex="1" parent="1">
          <mxGeometry x="385" y="405" width="58" height="22.5" as="geometry" />
        </mxCell>
      </root>
    </mxGraphModel>
  </diagram>
  <diagram id="jflX-hub84LA_hDM8YQc" name="Page-2">
    <mxGraphModel dx="1422" dy="737" grid="1" gridSize="10" guides="1" tooltips="1" connect="1" arrows="1" fold="1" page="1" pageScale="1" pageWidth="827" pageHeight="1169" math="0" shadow="0">
      <root>
        <mxCell id="bCsi8ZbHU-291vpE2bU2-0" />
        <mxCell id="bCsi8ZbHU-291vpE2bU2-1" parent="bCsi8ZbHU-291vpE2bU2-0" />
        <mxCell id="3p98WzkAYSwr8swRgg93-0" value="Profesores" style="rounded=0;whiteSpace=wrap;html=1;fontSize=18;strokeWidth=2;" vertex="1" parent="bCsi8ZbHU-291vpE2bU2-1">
          <mxGeometry x="430" y="240" width="100" height="45" as="geometry" />
        </mxCell>
        <mxCell id="HQ0saWg_fNR7PKeuzmwP-3" value="" style="edgeStyle=orthogonalEdgeStyle;rounded=0;orthogonalLoop=1;jettySize=auto;html=1;fontSize=14;endArrow=none;endFill=0;" edge="1" parent="bCsi8ZbHU-291vpE2bU2-1" source="PI2_lRhwCT7LCF9n1Lea-0" target="HQ0saWg_fNR7PKeuzmwP-2">
          <mxGeometry relative="1" as="geometry" />
        </mxCell>
        <mxCell id="HQ0saWg_fNR7PKeuzmwP-4" value="" style="edgeStyle=orthogonalEdgeStyle;rounded=0;orthogonalLoop=1;jettySize=auto;html=1;fontSize=14;endArrow=none;endFill=0;" edge="1" parent="bCsi8ZbHU-291vpE2bU2-1" source="PI2_lRhwCT7LCF9n1Lea-0" target="3p98WzkAYSwr8swRgg93-0">
          <mxGeometry relative="1" as="geometry" />
        </mxCell>
        <mxCell id="PI2_lRhwCT7LCF9n1Lea-0" value="LLeva" style="rhombus;whiteSpace=wrap;html=1;fontSize=16;strokeWidth=2;" vertex="1" parent="bCsi8ZbHU-291vpE2bU2-1">
          <mxGeometry x="290" y="232.5" width="64" height="60" as="geometry" />
        </mxCell>
        <mxCell id="HQ0saWg_fNR7PKeuzmwP-11" value="" style="edgeStyle=orthogonalEdgeStyle;rounded=0;orthogonalLoop=1;jettySize=auto;html=1;fontSize=14;endArrow=none;endFill=0;" edge="1" parent="bCsi8ZbHU-291vpE2bU2-1" source="HQ0saWg_fNR7PKeuzmwP-0" target="3p98WzkAYSwr8swRgg93-0">
          <mxGeometry relative="1" as="geometry" />
        </mxCell>
        <mxCell id="HQ0saWg_fNR7PKeuzmwP-0" value="Dirección" style="ellipse;whiteSpace=wrap;html=1;fontSize=16;strokeWidth=2;" vertex="1" parent="bCsi8ZbHU-291vpE2bU2-1">
          <mxGeometry x="580" y="360" width="80" height="50" as="geometry" />
        </mxCell>
        <mxCell id="HQ0saWg_fNR7PKeuzmwP-1" value="Alumno" style="rounded=0;whiteSpace=wrap;html=1;fontSize=18;strokeWidth=2;" vertex="1" parent="bCsi8ZbHU-291vpE2bU2-1">
          <mxGeometry x="290" y="400" width="100" height="45" as="geometry" />
        </mxCell>
        <mxCell id="HQ0saWg_fNR7PKeuzmwP-2" value="Módulo" style="rounded=0;whiteSpace=wrap;html=1;fontSize=18;strokeWidth=2;" vertex="1" parent="bCsi8ZbHU-291vpE2bU2-1">
          <mxGeometry x="110" y="240" width="100" height="45" as="geometry" />
        </mxCell>
        <mxCell id="HQ0saWg_fNR7PKeuzmwP-12" value="" style="edgeStyle=orthogonalEdgeStyle;rounded=0;orthogonalLoop=1;jettySize=auto;html=1;fontSize=14;endArrow=none;endFill=0;" edge="1" parent="bCsi8ZbHU-291vpE2bU2-1" source="HQ0saWg_fNR7PKeuzmwP-5" target="3p98WzkAYSwr8swRgg93-0">
          <mxGeometry relative="1" as="geometry" />
        </mxCell>
        <mxCell id="HQ0saWg_fNR7PKeuzmwP-5" value="Nombre" style="ellipse;whiteSpace=wrap;html=1;fontSize=16;strokeWidth=2;" vertex="1" parent="bCsi8ZbHU-291vpE2bU2-1">
          <mxGeometry x="570" y="237.5" width="80" height="50" as="geometry" />
        </mxCell>
        <mxCell id="HQ0saWg_fNR7PKeuzmwP-13" value="" style="edgeStyle=orthogonalEdgeStyle;rounded=0;orthogonalLoop=1;jettySize=auto;html=1;fontSize=14;endArrow=none;endFill=0;" edge="1" parent="bCsi8ZbHU-291vpE2bU2-1" source="HQ0saWg_fNR7PKeuzmwP-6" target="3p98WzkAYSwr8swRgg93-0">
          <mxGeometry relative="1" as="geometry" />
        </mxCell>
        <mxCell id="HQ0saWg_fNR7PKeuzmwP-6" value="DNI" style="ellipse;whiteSpace=wrap;html=1;fontSize=16;strokeWidth=2;" vertex="1" parent="bCsi8ZbHU-291vpE2bU2-1">
          <mxGeometry x="550" y="170" width="80" height="50" as="geometry" />
        </mxCell>
        <mxCell id="HQ0saWg_fNR7PKeuzmwP-10" value="" style="edgeStyle=orthogonalEdgeStyle;rounded=0;orthogonalLoop=1;jettySize=auto;html=1;fontSize=14;endArrow=none;endFill=0;" edge="1" parent="bCsi8ZbHU-291vpE2bU2-1" source="HQ0saWg_fNR7PKeuzmwP-7" target="HQ0saWg_fNR7PKeuzmwP-2">
          <mxGeometry relative="1" as="geometry" />
        </mxCell>
        <mxCell id="HQ0saWg_fNR7PKeuzmwP-7" value="Nombre" style="ellipse;whiteSpace=wrap;html=1;fontSize=16;strokeWidth=2;" vertex="1" parent="bCsi8ZbHU-291vpE2bU2-1">
          <mxGeometry x="10" y="270" width="80" height="50" as="geometry" />
        </mxCell>
        <mxCell id="HQ0saWg_fNR7PKeuzmwP-9" value="" style="edgeStyle=orthogonalEdgeStyle;rounded=0;orthogonalLoop=1;jettySize=auto;html=1;fontSize=14;endArrow=none;endFill=0;" edge="1" parent="bCsi8ZbHU-291vpE2bU2-1" source="HQ0saWg_fNR7PKeuzmwP-8" target="HQ0saWg_fNR7PKeuzmwP-2">
          <mxGeometry relative="1" as="geometry" />
        </mxCell>
        <mxCell id="HQ0saWg_fNR7PKeuzmwP-8" value="Código" style="ellipse;whiteSpace=wrap;html=1;fontSize=16;strokeWidth=2;" vertex="1" parent="bCsi8ZbHU-291vpE2bU2-1">
          <mxGeometry x="10" y="210" width="80" height="50" as="geometry" />
        </mxCell>
        <mxCell id="HQ0saWg_fNR7PKeuzmwP-16" value="" style="edgeStyle=orthogonalEdgeStyle;rounded=0;orthogonalLoop=1;jettySize=auto;html=1;fontSize=14;endArrow=none;endFill=0;" edge="1" parent="bCsi8ZbHU-291vpE2bU2-1" source="HQ0saWg_fNR7PKeuzmwP-14">
          <mxGeometry relative="1" as="geometry">
            <mxPoint x="510" y="280" as="targetPoint" />
          </mxGeometry>
        </mxCell>
        <mxCell id="HQ0saWg_fNR7PKeuzmwP-14" value="Teléfono" style="ellipse;whiteSpace=wrap;html=1;fontSize=16;strokeWidth=2;" vertex="1" parent="bCsi8ZbHU-291vpE2bU2-1">
          <mxGeometry x="570" y="310" width="80" height="50" as="geometry" />
        </mxCell>
        <mxCell id="2QIg_-xhw_aGhJz-gF21-0" value="1:M" style="text;html=1;strokeColor=none;fillColor=none;align=center;verticalAlign=middle;whiteSpace=wrap;rounded=0;fontSize=19;labelBackgroundColor=default;labelBorderColor=none;fontStyle=7" vertex="1" parent="bCsi8ZbHU-291vpE2bU2-1">
          <mxGeometry x="294" y="202.5" width="60" height="30" as="geometry" />
        </mxCell>
        <mxCell id="IIecYJCCSSdn9uHMp5eZ-0" value="1:M" style="text;html=1;strokeColor=none;fillColor=none;align=center;verticalAlign=middle;whiteSpace=wrap;rounded=0;labelBackgroundColor=none;labelBorderColor=none;fontSize=14;" vertex="1" parent="bCsi8ZbHU-291vpE2bU2-1">
          <mxGeometry x="230" y="237.5" width="58" height="22.5" as="geometry" />
        </mxCell>
        <mxCell id="IIecYJCCSSdn9uHMp5eZ-1" value="1:M" style="text;html=1;strokeColor=none;fillColor=none;align=center;verticalAlign=middle;whiteSpace=wrap;rounded=0;labelBackgroundColor=none;labelBorderColor=none;fontSize=14;" vertex="1" parent="bCsi8ZbHU-291vpE2bU2-1">
          <mxGeometry x="364" y="240" width="58" height="22.5" as="geometry" />
        </mxCell>
      </root>
    </mxGraphModel>
  </diagram>
</mxfile>
